<?xml version="1.0" encoding="utf-8"?>
<!-- Generator: Adobe Illustrator 19.0.0, SVG Export Plug-In . SVG Version: 6.00 Build 0)  -->
<svg version="1.1"
	 id="svg8" xmlns:rdf="http://www.w3.org/1999/02/22-rdf-syntax-ns#" xmlns:inkscape="http://www.inkscape.org/namespaces/inkscape" xmlns:cc="http://creativecommons.org/ns#" xmlns:svg="http://www.w3.org/2000/svg" xmlns:dc="http://purl.org/dc/elements/1.1/" xmlns:sodipodi="http://sodipodi.sourceforge.net/DTD/sodipodi-0.dtd" sodipodi:docname="Stickman.svg" inkscape:version="0.92.3 (2405546, 2018-03-11)"
	 xmlns="http://www.w3.org/2000/svg" xmlns:xlink="http://www.w3.org/1999/xlink" x="0px" y="0px" viewBox="-201 80.1 595.3 841.9"
	 style="enable-background:new -201 80.1 595.3 841.9;" xml:space="preserve">
<style type="text/css">
	.st0{fill:#C6C6C6;}
	.st1{fill:#8C8C8C;}
	.st2{fill:#FFFFFF;stroke:#FFFFFF;stroke-width:5.2917;stroke-linejoin:round;}
	.st3{fill:#FFFFFF;stroke:#FFFFFF;stroke-width:4.1349;stroke-linejoin:round;}
	.st4{fill:#FFFFFF;stroke:#FFFFFF;stroke-width:6.4648;stroke-linejoin:round;}
</style>
<path class="st0" d="M-498.3,553.6c-0.4-0.2-0.7-0.5-1.3-1.1c-0.1,5-0.2,9.7-0.3,14.2c3.3,0.1,6.8,0.3,10.4,0.2
	c13.9-0.3,24.9,6.5,34.2,18.2c5.2,6.6,9.4,13.9,12.7,22c0.3,0.6,0.4,1.3,0.5,2c-7.9-11.5-15.5-23.2-25.8-31.7
	c-1.3-1.1-2.7-2.1-4.1-3c-0.3-0.2-0.8-0.3-1.3-0.6c-4.2,8.3-7.1,16.9-4.1,26.6c1.4,4.5,4.2,7.8,7.4,10.5c6.8,5.7,14.6,8.4,22.6,10.2
	c4.5,1,9.2,1.6,13.9,2.4c0.1-4.7,0.4-9,0.2-13.2c-0.3-9.8-1.4-19.5-4.8-28.6c-1.8-4.7-4.1-8.9-7.8-11.9c-5-4-10.5-4.2-16.2-2.8
	c-0.6,0.2-1.3,0.3-1.9,0.6c-3,1.9-5.6,1.3-8.1-1.3c-1.3-1.4-3-2.3-4.6-3.4"/>
<path class="st0" d="M-498.3,611.9c-0.4-0.1-0.7-0.2-1.4-0.4c1.6,4.1,3,8,4.4,11.7c2.7-1,5.7-2,8.6-3.3c11.2-4.8,22.6-2.9,34,3.6
	c6.4,3.7,12.3,8.3,17.6,13.8c0.4,0.4,0.8,0.9,1.1,1.5c-10.2-6.8-20.3-13.9-31.6-17.4c-1.5-0.5-2.9-0.8-4.4-1.1c-0.4-0.1-0.7,0-1.3,0
	c-0.7,8.2-0.2,16.2,5.4,23.1c2.6,3.2,6,5,9.5,6.2c7.4,2.4,14.7,2.1,21.9,0.9c4.1-0.7,8-1.7,12.1-2.6c-1.5-3.9-2.7-7.5-4.2-10.9
	c-3.5-7.9-7.6-15.5-13.4-21.8c-3-3.3-6.3-5.9-10.3-7.1c-5.4-1.7-10,0-14.1,3.1c-0.5,0.4-1,0.7-1.4,1.2c-1.8,2.6-4.1,2.9-7.1,1.6
	c-1.5-0.7-3.2-0.8-4.9-1.2"/>
<path class="st0" d="M-297.1,605.4c0.5,0.3,0.9,0.7,1.8,1.3c0.8-4.4,1.6-8.6,2.3-12.6c-4.8-0.9-9.9-1.9-15.1-2.7
	c-20.2-3.2-35.4-12-47.3-24.7c-6.7-7.1-11.8-14.7-15.5-22.7c-0.3-0.6-0.4-1.2-0.4-1.9c9.9,12.2,19.4,24.5,33.4,34.7
	c1.8,1.3,3.7,2.5,5.6,3.7c0.5,0.3,1.1,0.5,1.8,0.8c7.2-6.4,12.5-13.3,9.5-22.7c-1.4-4.3-5-8-9.4-11.2c-9.1-6.8-20.1-11.1-31.5-14.7
	c-6.5-2-13.1-3.7-19.9-5.5c-0.8,4.2-1.7,7.9-2.1,11.7c-0.9,8.8-0.5,17.7,3.2,26.7c1.9,4.6,4.8,8.9,9.7,12.5
	c6.7,4.8,14.7,6.4,23.2,6.5c1,0,2,0.1,2.9-0.1c4.6-1,8.3,0.2,11.6,3.2c1.7,1.6,4.1,2.8,6.2,4.1"/>
<path class="st0" d="M-316.3,380.5c-0.5,0.2-0.9,0.4-1.8,0.7c0.9-4.9,1.8-9.6,2.6-14.1c3.9,0.7,8.1,1.4,12.3,2.3
	c16.3,3.6,30.7-0.5,44-9.9c7.5-5.2,13.9-11.5,19.5-18.7c0.4-0.5,0.7-1.2,1-1.9c-11.6,9.5-23,19.2-37,25.2c-1.8,0.8-3.7,1.4-5.5,2
	c-0.5,0.2-1,0.2-1.7,0.3c-3.3-9.2-4.9-18.4,0.6-27.2c2.5-4.1,6.5-6.7,10.9-8.6c9.2-4,18.9-4.8,28.8-4.7c5.6,0.1,11.1,0.6,16.8,0.9
	c-0.9,4.7-1.4,9-2.4,13.1c-2.4,9.6-5.7,18.9-11.5,27.1c-3,4.2-6.7,7.8-11.6,9.9c-6.7,2.8-13.2,1.7-19.6-1.1
	c-0.7-0.3-1.5-0.6-2.1-1.1c-3.2-2.6-6.3-2.6-9.8-0.6c-1.8,1.1-4,1.5-6.1,2.2"/>
<path class="st0" d="M-323.1,435.5c0.4,0.3,0.8,0.6,1.6,1.1c0.7-3.9,1.4-7.5,2-11c-4.2-0.8-8.7-1.7-13.2-2.4
	c-17.7-2.8-31-10.5-41.4-21.6c-5.8-6.2-10.3-12.9-13.6-19.9c-0.2-0.5-0.4-1.1-0.4-1.7c8.7,10.7,17,21.4,29.2,30.3
	c1.6,1.1,3.3,2.2,4.9,3.3c0.4,0.3,0.9,0.4,1.6,0.7c6.3-5.6,11-11.7,8.3-19.9c-1.2-3.8-4.4-7-8.2-9.8c-8-5.9-17.6-9.7-27.6-12.9
	c-5.7-1.8-11.5-3.2-17.4-4.9c-0.7,3.7-1.5,6.9-1.8,10.3c-0.7,7.7-0.5,15.5,2.8,23.4c1.7,4.1,4.2,7.8,8.5,10.9
	c5.9,4.2,12.8,5.6,20.3,5.7c0.8,0,1.7,0.1,2.5-0.1c4.1-0.9,7.2,0.2,10.1,2.8c1.5,1.4,3.6,2.4,5.4,3.6"/>
<path class="st0" d="M-530.9,290.2c-15.4,8.8-31.2,14.6-48.8,7.8c-8.1-3.1-14.1-9.3-19-16.5c-10.2-14.9-14.8-31.9-17.8-49.4
	c-1.7-9.9-2.6-19.9-3.8-30.1c8.6,0,16.5-0.4,24.2,0.1c18,1.1,35.6,3.9,52.1,11.7c8.5,4,16.1,9.3,21.4,17.3c7.2,11,7.4,22.9,4.4,35.1
	c-0.3,1.4-0.5,2.9-1.2,4.1c-3.7,6.4-2.6,12,2.1,17.5c2.5,2.9,4,6.7,6,10.1c2.7-4.1,5.4-8.1,7.9-12.2c0.4-0.7,0.1-2-0.1-2.9
	c-1.1-4.6-2.7-9.1-3.2-13.7c-1.5-12.6,4-21.8,14.6-28.2c8-4.8,16.7-7.6,25.8-8.8c10.6-1.4,21.2-2,32.9-3c-1.1,8.4-1.7,15.5-2.9,22.5
	c-2.3,13.1-5.9,25.7-14.3,36.5c-7.1,9.2-18.4,13.5-29.8,10.4c-5.5-1.5-10.7-3.8-16.7-6c5.1-10.9,12.2-19.3,20.2-26.9
	c8-7.6,16.3-14.6,24.6-22c-0.4,0-0.9,0-1.3,0.2c-15.9,8-29.4,18.8-40.1,33.2c-15.7,21.1-12,48.9-1.4,67.8c0.4,0.8,1,1.5,1.9,2.9
	c-9.1,0-17.7,0-25.9,0c0-7.1-0.2-14.8,0-22.5c1.1-30-11-54.3-32-74.8c-11.8-11.5-25.1-20.9-39.7-28.4c-1.1-0.6-2.3-0.9-3.6-1.1
	c20.7,17.5,41.8,34.5,57,57.3c2,2.9,3.7,6,5.4,9.1C-531.4,288.1-531.3,289-530.9,290.2z"/>
<path class="st1" d="M-482.9,168.1c8.6,17.6,15.3,35.1,17.6,54.6c-17.9,4.1-35.2,9.1-45.2,27.9c-0.2-17.7-8.8-29.9-22-39.6
	C-519.7,192.2-502.1,179.7-482.9,168.1z"/>
<sodipodi:namedview  id="base" bordercolor="#666666" inkscape:cx="-403.91962" borderopacity="1.0" showgrid="false" inkscape:zoom="0.98994949" inkscape:cy="396.22454" pagecolor="#ffffff" inkscape:pageopacity="0.0" inkscape:pageshadow="2" inkscape:window-y="-8" inkscape:window-height="1017" inkscape:window-maximized="1" inkscape:window-width="1920" inkscape:document-units="mm" inkscape:current-layer="layer1" inkscape:window-x="-8">
	</sodipodi:namedview>
<path id="rect815-8-7-7" inkscape:connector-curvature="0" sodipodi:nodetypes="csssssc" inkscape:export-ydpi="400.05972" inkscape:export-xdpi="400.05972" class="st2" d="
	M-504.4,510.9c0,0,5.1-0.1,5.6,10.3l6.9,137.5c0.5,10.4-5.3,18.8-12.4,19s-13.8-8-13.3-18.4l6.9-138.7
	C-510.2,510.3-504.4,510.9-504.4,510.9z"/>
<path id="rect815-8-70" inkscape:connector-curvature="0" sodipodi:nodetypes="ssscsss" inkscape:export-ydpi="400.05972" inkscape:export-xdpi="400.05972" class="st2" d="
	M-294,517.5c7.1,0,13.3,8.4,12.8,18.8l-6.9,135.7c-0.5,10.4-9.3,10.8-9.3,10.8s-3.1,1.2-3.6-9.1l-6-137.5
	C-307.4,525.8-301.2,517.4-294,517.5L-294,517.5z"/>
<path id="rect815-4" inkscape:connector-curvature="0" inkscape:export-ydpi="400.05972" inkscape:export-xdpi="400.05972" class="st3" d="
	M-319.3,333.5c7.4,0,13.4,2.8,13.4,6.2v115.1c0,3.4-6,6.2-13.4,6.2c-7.4,0-13.4-2.8-13.4-6.2V339.7
	C-332.7,336.3-326.8,333.5-319.3,333.5L-319.3,333.5z"/>
<path id="path865-0" inkscape:connector-curvature="0" inkscape:export-ydpi="400.05972" inkscape:export-xdpi="400.05972" class="st4" d="
	M-438.3,397.3c0,38.7-31.9,70-71.3,70c-39.4,0-71.3-31.4-71.3-70c0-38.7,31.9-70,71.3-70c0,0,0,0,0,0
	C-470.2,327.2-438.3,358.6-438.3,397.3L-438.3,397.3L-438.3,397.3z"/>
<path class="st4" d="M-526.8,334.4"/>
<path class="st0" d="M-302,423.9c7.9-4.5,14.9-10.2,21.2-16.8c0.5-0.5,0.8-1.1,1.2-1.8c-12.5,8.3-24.7,17-39.2,21.6
	c-1.9,0.6-3.8,1-5.7,1.5c-0.5,0.1-1,0.1-1.7,0.1c-2.4-9.5-3.1-18.7,3.2-27c2.9-3.8,7.1-6.1,11.7-7.6c9.5-3.2,19.3-3,29.1-2
	c5.5,0.6,11,1.6,16.7,2.5c-1.3,4.6-2.3,8.8-3.7,12.8c-3.3,9.4-7.4,18.3-14,25.9c-3.4,3.9-7.4,7.1-12.5,8.7
	c-6.9,2.2-13.3,0.5-19.4-2.9c-0.7-0.4-1.4-0.9-2-1.3c-3.2-1.9-3.5-2-6.9-4.2"/>
<path class="st0" d="M-274,531.4c7.9-4.5,14.9-10.2,21.2-16.8c0.5-0.5,0.8-1.1,1.2-1.8c-12.5,8.3-24.7,17-39.2,21.6
	c-1.9,0.6-3.8,1-5.7,1.5c-0.5,0.1-1,0.1-1.7,0.1c-2.4-9.5-3.1-18.7,3.2-27c2.9-3.8,7.1-6.1,11.7-7.6c9.5-3.2,19.3-3,29.1-2
	c5.5,0.6,11,1.6,16.7,2.5c-1.3,4.6-2.3,8.8-3.7,12.8c-3.3,9.4-7.4,18.3-14,25.9c-3.4,3.9-7.4,7.1-12.5,8.7
	c-6.9,2.2-13.3,0.5-19.4-2.9c-0.7-0.4-1.4-0.9-2-1.3c-3.2-1.9-3.5-2-6.9-4.2"/>
</svg>
